<?xml version="1.0" encoding="utf-8"?>
<!DOCTYPE svg PUBLIC "-//W3C//DTD SVG 1.1//EN" "http://www.w3.org/Graphics/SVG/1.1/DTD/svg11.dtd">
<svg version="1.1" id="Layer_1" xmlns="http://www.w3.org/2000/svg" xmlns:xlink="http://www.w3.org/1999/xlink" x="0px" y="0px"
	 viewBox="0 0 1630.9633 1630.9633" enable-background="new 0 0 1630.9633 1630.9633" xml:space="preserve">
<g>
	<path d="M585.9553,1069.7905c-15.4304,9.9102-32.7017,18.6228-50.873,26.0903c7.4676-18.1714,16.1802-35.4426,26.0903-50.873
		c36.8441-57.3766,94.7065-107.6113,163.9138-139.131l20.7881-20.7883c-95.0586,34.6581-185.3434,120.1637-226.8374,226.8375
		h-0.0001v0.0001l0.0001-0.0001c106.6738-41.4939,192.1794-131.7788,226.8375-226.8374l-20.7882,20.7882
		C693.5667,975.084,643.332,1032.9465,585.9553,1069.7905z"/>
	<path d="M804.2622,857.9436c26.1138,0.448-7.3159,21.5799,3.2032,25.6792c2.7616-1.6126,5.5487-4.1122,8.0161-7.1977v-34.4205
		C807.3915,842.9673,803.6396,848.2684,804.2622,857.9436z"/>
	<path d="M813.8851,899.6723h0.0067c-35.2419-31.1561-25.6792,33.898-25.6792,54.5684c18.5771-5.4836-7.6572-35.8372,9.6296-41.722
		c6.0654-0.7223,7.082,3.6111,12.8396,3.2031C809.3645,907.9914,816.5333,908.747,813.8851,899.6723z"/>
	<path d="M756.1069,973.4935c4.8014,0.5416,11.8499-1.1503,12.8395,3.2031c0.1672,15.1534-13.5553,16.404-19.2594,25.6792
		l0.0002,0.0068c24.6759-2.0731,40.7255-12.7059,38.5187-41.7288C779.218,949.0046,753.8533,955.0031,756.1069,973.4935z"/>
	<path d="M707.9583,1085.8335c7.2625-16.2769,2.2671-44.8116,22.4695-48.1486c10.1445-1.5782,1.1902,15.9291,12.8396,12.8396
		c14.5315-0.4547,12.9131-17.0527,12.8396-32.0991C717.9893,984.1196,702.3411,1056.8105,707.9583,1085.8335z"/>
	<path d="M614.8711,1130.772l0.0067,0.0002c-47.6135-4.8149-55.0365,30.6277-70.6179,57.7782
		c18.9585-7.7841,16.6515-36.8403,48.1418-32.099v16.0493C620.2544,1185.5745,633.8096,1146.7412,614.8711,1130.772z"/>
	<path d="M489.6849,1162.8711C469.0879,1159.1931,482.5963,1172.7014,489.6849,1162.8711L489.6849,1162.8711z"/>
	<path d="M534.6301,1194.9702c1.8658-21.5399-22.3154-38.626-44.9385-19.2595c-3.377,14.0767,10.8536,10.5459,9.6231,22.4692
		c-20.5132,17.835-38.1181-3.7678-53.0973-13.4341c-9.6663-14.9792-31.2691-32.5841-13.4341-53.0973
		c11.9235-1.2305,8.3926,13.0001,22.4692,9.6232c19.3664-22.6232,2.2805-46.8044-19.2594-44.9387
		c-38.8144,3.3615-29.8654,81.5376,6.6437,91.9934C453.0927,1224.8354,531.2687,1233.7845,534.6301,1194.9702z"/>
	<path d="M440.2086,1190.7546c-28.2299-11.7734-71.385,8.1584-71.6235,37.191c-0.0739,8.726,4.5806,17.0116,11.4669,22.9656
		c5.954,6.8864,14.2396,11.5406,22.9656,11.4669C432.0502,1262.1396,451.9821,1218.9845,440.2086,1190.7546z"/>
	<path d="M383.7648,1313.7366c5.2465-17.7893-4.8237-34.8135-13.3573-53.1808l-5.1235,5.1234l5.1234-5.1235
		c-18.3672-8.5334-35.3914-18.6038-53.1808-13.3572c-32.6726,9.6506-22.4764,57.688,9.5242,57.0139
		C326.0768,1336.2129,374.1142,1346.4092,383.7648,1313.7366z M355.0371,1275.9261c1.1863,5.2368,0.2924,10.1383-6.5881,15.3412
		c-2.3862-0.5315-3.7957-2.0394-5.2321-3.5209l-0.0001-0.0001h-0.0001c-1.4814-1.4364-2.9894-2.8459-3.5209-5.2322
		C344.8987,1275.6338,349.8003,1274.7397,355.0371,1275.9261z"/>
	<path d="M518.5742,1233.4956c-0.7089,10.332,5.6774,13.5753,3.2098,25.6793c-2.7083,3.0092-20.4564,6.8544-22.4693,0
		c4.2598-5.3699,8.5063-10.7532,6.4199-22.4694c-3.5979-0.6821-4.9954-3.5577-6.4199-6.4199
		c-31.31,5.2762-28.3073,20.1221-44.9385-6.4198c-2.0464,23.4457,16.6111,26.1942,19.2592,44.9386
		c-4.0323-0.7021-6.5602-5.0021-6.4197,3.21c-4.9888,19.6138-22.5496,26.6689-32.0991,41.7288
		c26.5954-2.3206,42.879-28.3674,44.9386-44.9453c19.2595,14.9128,49.2855,20.062,73.8279,6.4199
		C567.2307,1250.575,548.8809,1221.4653,518.5742,1233.4956z"/>
	<path d="M316.0757,1314.8876l-3.9184,3.9183l3.9183-3.9185c-7.2328-2.4141-13.7894-6.1232-18.1017-9.9041
		c1.8596,5.6979,6.2784,11.1049,12.2242,15.7817c4.6769,5.9458,10.0838,10.3646,15.7817,12.2241
		C322.1989,1328.677,318.4898,1322.1204,316.0757,1314.8876z"/>
	<path d="M444.7464,1249.5386c-0.6688,17.5876-10.1648,26.2144-25.6794,28.8892c-9.048-0.5751-3.9988-15.2537-16.0427-12.8396
		c-6.2728,11.6895-14.6385,11.5354-12.8397,25.6792C395.8286,1335.8782,483.8803,1288.5255,444.7464,1249.5386z"/>
	<path d="M226.4528,1435.7062c-1.7307-11.9766-1.592-22.0831-0.2299-30.9657l0.0001-0.0002c-0.0001,0-0.0001,0-0.0001,0h-0.0001
		c-8.8826,1.3623-18.9892,1.5009-30.9658-0.2297c-15.7018-3.5645-15.5814-22.9441-35.309-22.4692
		c-30.0851,22.5027-2.4684,51.23,34.4362,54.5377c3.3077,36.9045,32.035,64.5212,54.5378,34.4362
		C249.3968,1451.2876,230.0171,1451.408,226.4528,1435.7062z"/>
	<polygon points="393.3878,1313.7366 393.3892,1313.7366 393.3878,1313.7299 	"/>
	<path d="M393.3892,1313.7366c9.1539,39.6504-43.4035,53.5569-67.4094,25.6725c14.1906,61.0952-47.2725,99.6608-83.4575,60.9882
		c-8.3391,16.4307-6.3462,37.1278,3.2099,51.3584c65.9099,26.6757,88.5131-40.7256,86.6674-102.7169
		c19.6942,35.3558,91.9974,29.986,89.8773-9.6229C421.5614,1326.0481,412.6142,1314.6267,393.3892,1313.7366z"/>
	<path d="M313.1201,1329.7861c-3.1285-0.8521-5.6185-2.3435-7.9277-4.0154c-1.6719-2.3092-3.1632-4.7992-4.0153-7.9277
		c-57.8994-30.9744-97.9383,58.5825-54.9578,66.9008l10.707-10.7069l-10.7069,10.707
		C254.5377,1427.7244,344.0945,1387.6854,313.1201,1329.7861z M301.1772,1324.2629c-5.1927,3.5437-10.2242,7.2488-10.3431,15.8662
		v0.0001l0.0001-0.0001c8.6174-0.1189,12.3226-5.1504,15.8662-10.343c8.0983,20.1687-5.6573,39.6757-25.6792,41.7286
		c-8.2208-2.9271-9.0002-7.0323-8.0343-13.5382l0.0001-0.0002c-0.0001,0-0.0001,0-0.0001,0h-0.0001
		c-6.506,0.9661-10.6111,0.1865-13.5383-8.0342C261.5014,1329.9203,281.0083,1316.1646,301.1772,1324.2629z"/>
	<path d="M236.0826,1490.2813c-5.8982,3.7382-2.2269,17.0393-16.0496,12.8396c-24.208-3.6111-20.7708-34.8676-32.0989-51.3584
		c-4.6812,43.8018,2.3739,109.0698-48.1487,115.5564c-4.7679-2.7217-4.641-10.3384-6.4197-16.0494
		c-35.6166,19.0656-11.3417,64.8802,16.0494,64.2047c42.5313-1.0432,40.1305-65.6091,41.7288-105.9335
		C195.5174,1553.6902,275.7383,1521.8854,236.0826,1490.2813z"/>
	<path d="M126.9391,1535.2266c8.4727,1.1169,12.9733,5.6173,22.4693,3.2032c21.493-5.4701,39.823-55.8456,22.4694-70.6178v-0.0002
		c-1.7053,15.4478-7.0352,27.2175-22.4694,28.8893c-5.9834,0.9348-5.3239-4.7732-6.1656-8.9805l0.0001-0.0001
		c-0.0001,0-0.0001,0-0.0001,0h-0.0001c-4.2073-0.8417-9.9153-0.1821-8.9805-6.1655c1.6718-15.4343,13.4415-20.7642,28.8892-22.4695
		h-0.0001c-14.7723-17.3535-65.1478,0.9763-70.6179,22.4695c-2.4141,9.496,2.0864,13.9966,3.2032,22.4692
		c6.9732,5.2173,15.3442,7.8247,23.3845,7.8179C119.1144,1519.8823,121.7218,1528.2534,126.9391,1535.2266z"/>
	<path d="M669.4596,1069.7839c53.9618-52.962,106.7172-124.337,121.9629-205.4205
		c-25.6859,86.6674-71.7347,152.9586-128.3961,208.6437c-7.2958-0.5751-18.7109,10.8401-12.8396,12.8397
		c1.3108-4.0392,4.1327-6.5604,9.623-6.4198c-1.3777,6.1121-6.9148,8.0648-6.4199,16.0427
		c9.5697,0.0603,19.5605-0.2942,19.2595,9.6298c-3.0493,23.6998-37.7432,15.7487-57.7783,22.4694
		c42.1702,22.6365,114.5267-17.7415,73.8278-57.7849H669.4596z"/>
	<path d="M669.4192,1028.0619c38.6079-39.5422,76.5648-101.14,95.3279-161.8457l-10.1732,10.1732
		c-38.3973,115.4554-132.4658,210.9965-248.5445,248.5444c37.5479-116.0787,133.089-210.1472,248.5443-248.5445l10.1733-10.1732
		c-60.7058,18.763-122.3035,56.7198-161.8457,95.3278c-43.0131,41.9898-83.2719,98.822-104.3153,170.8333
		C570.5972,1111.3337,627.4294,1071.075,669.4192,1028.0619z"/>
	<path d="M640.5549,1089.0444c-3.7439,1.8054-6.552,3.8779-9.6274,6.4187C608.063,1114.2091,646.8079,1090.0266,640.5549,1089.0444z
		"/>
	<polygon points="640.5503,1089.0433 640.5549,1089.0444 640.5571,1089.0433 	"/>
	<path d="M566.7225,1137.1919c3.7916-1.5515,7.2758-3.424,9.6295-6.4199C572.0724,1130.304,558.6309,1135.8544,566.7225,1137.1919z"
		/>
	<path d="M528.2036,1153.2413c13.5219-2.5344,24.2483-7.8441,32.0991-16.0494
		C547.7974,1140.7361,537.0309,1146.0859,528.2036,1153.2413z"/>
	<path d="M524.9938,1153.2413h0.0065c-6.0853-0.3344-23.4053,3.9457-16.0492,6.4198
		C514.662,1157.8823,522.2787,1158.0093,524.9938,1153.2413z"/>
	<path d="M537.84,1217.4395c5.3499-6.1858,29.5914-4.0994,35.3023,0c2.3206,9.8103-3.2769,11.6962-3.2031,19.2595
		c16.0762,0.0332,21.854-10.2317,28.8823-19.2595h0.0066C593.0104,1186.2766,539.3781,1202.7942,537.84,1217.4395z"/>
	<path d="M319.5601,1435.7062c-6.7876,13.5084-1.7454,30.6545,3.2099,41.7288c55.9758,19.7465,39.9052-88.4259,19.2633-96.2887
		c6.4145,12.9785,3.8071,44.3979-0.004,57.7698C331.9048,1440.4944,330.6944,1433.1316,319.5601,1435.7062z"/>
	<polygon points="342.0293,1381.1445 342.0333,1381.1462 342.0293,1381.1378 	"/>
	<path d="M367.7086,1406.8304c19.6941,36.3455,6.4331,101.4264-44.9386,96.2904c-8.513,1.0232,3.0025-17.9822-9.6298-12.8396v0.0068
		c-13.4149,4.7478-9.5027,25.4785-6.4199,38.5188c57.3503,44.2432,88.774-48.8708,73.8279-105.9336
		C379.2108,1417.7776,372.0821,1397.0203,367.7086,1406.8304z"/>
	<path d="M813.8088,817.1544c0.2886,2.3801,0.8464,4.6445,1.6727,6.5695v-8.2423h-8.2423
		C809.1643,816.3078,811.4286,816.8657,813.8088,817.1544z"/>
	<path d="M773.0195,826.701c9.6753,0.6226,14.9763-3.1293,15.939-11.2194h-34.4204c-3.0854,2.4673-5.5851,5.2545-7.1978,8.0161
		C751.4397,834.0169,772.5715,800.5872,773.0195,826.701z"/>
	<path d="M731.2909,817.0714v0.0067c-9.0747-2.6483-8.3191,4.5206-16.0496,3.2032c-0.408,5.7576,3.9254,6.7742,3.2031,12.8395
		c-5.8848,17.2869-36.2384-8.9474-41.722,9.6298C697.3928,842.7506,762.447,852.3134,731.2909,817.0714z"/>
	<path d="M628.5874,881.2761c9.2751-5.7041,10.5256-19.4266,25.6792-19.2593c4.3533,0.9897,2.6614,8.0381,3.2031,12.8395
		c18.4902,2.2536,24.4888-23.1111,12.8396-32.0991c-29.0229-2.2068-39.6558,13.8428-41.7288,38.5187L628.5874,881.2761z"/>
	<path d="M545.1298,923.0049c29.0228,5.6172,101.7137-10.031,67.4081-48.1486c-15.0464-0.0735-31.6444-1.692-32.0991,12.8395
		c-3.0896,11.6494,14.4177,2.6951,12.8396,12.8397C589.9414,920.7379,561.4066,915.7425,545.1298,923.0049z"/>
	<path d="M500.1911,1016.0854l0.0002,0.0067c-15.9693-18.9385-54.8025-5.3832-41.7288,22.4695h16.0494
		c4.7413,31.4904-24.315,29.1833-32.0991,48.1418C469.5633,1071.1218,505.006,1063.699,500.1911,1016.0854z"/>
	<path d="M468.0921,1141.2783C458.2618,1148.3669,471.7701,1161.8752,468.0921,1141.2783L468.0921,1141.2783z"/>
	<path d="M407.0974,1176.5872c-26.5419-16.6313-11.696-13.6287-6.4199-44.9386c-2.8621-1.4244-5.7377-2.8219-6.4199-6.4198
		c-11.7162-2.0865-17.0995,2.1599-22.4694,6.4198c-6.8544-2.0128-3.0092-19.761,0-22.4694
		c12.104-2.4675,15.3474,3.9187,25.6792,3.2098c12.0305-30.3068-17.0793-48.6566-41.722-35.3088
		c-13.6421,24.5424-8.4929,54.5684,6.4199,73.8279c-16.5779,2.0597-42.6248,18.3431-44.9453,44.9386
		c15.0598-9.5496,22.1149-27.1104,41.7288-32.0991c8.212,0.1406,3.912-2.3873,3.2098-6.4197
		C380.9032,1159.976,383.6517,1178.6335,407.0974,1176.5872z"/>
	<path d="M381.4247,1186.2168c-38.987-39.134-86.3397,48.9178-41.7288,54.5618c14.1437,1.7988,13.9898-6.5669,25.6792-12.8396
		c2.4141-12.0439-12.2645-6.9948-12.8396-16.0427C355.2104,1196.3816,363.837,1186.8856,381.4247,1186.2168z"/>
	<polygon points="317.2334,1237.5754 317.2266,1237.574 317.2267,1237.5754 	"/>
	<path d="M230.5659,1388.4409c-38.6726-36.1849-0.107-97.6479,60.9882-83.4575c-27.8844-24.0059-13.9778-76.5632,25.6725-67.4094
		c-0.89-19.225-12.3115-28.1721-25.6791-28.8877c-39.6089-2.12-44.9788,70.1832-9.623,89.8773
		c-61.9913-1.8457-129.3926,20.7574-102.717,86.6674C193.4382,1394.7871,214.1353,1396.78,230.5659,1388.4409z"/>
	<path d="M63.6443,1491.1779c6.4867-50.5226,71.7547-43.4675,115.5565-48.1487c-16.491-11.3281-47.7474-7.8909-51.3585-32.0989
		c-4.1996-13.8226,9.1014-10.1515,12.8397-16.0497c-31.6042-39.6556-63.4089,40.5652-19.2595,44.9387
		c-40.3244,1.5983-104.8903-0.8025-105.9336,41.7288c-0.6754,27.3911,45.1393,51.666,64.2048,16.0494
		C73.9828,1495.8188,66.3661,1495.9458,63.6443,1491.1779z"/>
	<path d="M802.657,828.3063L802.657,828.3063l-0.0002,0.0001c-9.302,2.3705-19.1802,6.4321-29.6372,4.8412
		c0.5217,3.7582,5.8516,2.7083,9.6299,3.2098c-39.2411,17.0593-78.937,29.6383-115.5566,51.3584
		c-89.5435,53.1192-173.4665,144.8532-198.982,275.1365l-0.0002,0.0002c0.0001,0,0.0001,0,0.0001,0h0.0001
		c130.2835-25.5156,222.0174-109.4387,275.1366-198.9822c21.7201-36.6197,34.2991-76.3155,51.3584-115.5565
		c0.5015,3.7783-0.5485,9.1081,3.2098,9.6298c-1.5909-10.4569,2.4707-20.3351,4.8412-29.6372L802.657,828.3063z M582.7454,1114.7292
		c-33.1116,18.3796-68.6897,31.1758-105.3365,38.8252c7.6493-36.647,20.4454-72.2251,38.8251-105.3367
		c51.4228-92.6402,145.1928-174.2524,267.8552-201.3437C756.9978,969.5364,675.3856,1063.3065,582.7454,1114.7292z
		 M796.8773,834.0859c-0.6575,1.6349-1.4093,3.1753-2.2782,4.5982c0.1553-0.9244,0.2981-1.8453,0.4481-2.7681l-3.6527,3.6526
		l3.6526-3.6527c-0.9229,0.15-1.8438,0.2928-2.7681,0.4482c1.4229-0.869,2.9634-1.6208,4.5981-2.2783l2.8899-2.8898
		L796.8773,834.0859z"/>
	<path d="M169.5713,1455.8888c0.7326,1.3539,1.2028,2.6925,1.4832,4.0199h-0.0001c1.3274,0.2805,2.6661,0.7506,4.02,1.4832
		c2.7151-4.0374,5.4857-8.0176,7.376-12.8789l-7.5974,7.5972l7.5973-7.5973
		C177.5889,1450.4031,173.6087,1453.1737,169.5713,1455.8888z"/>
	<path d="M766.5997,839.5407c-81.0834,15.2457-152.4585,68.001-205.4204,121.9629v-19.2393
		c-40.0436-40.699-80.4214,31.6577-57.7849,73.8277c6.7208-20.0352-1.2305-54.7289,22.4693-57.7783
		c9.924-0.301,9.5695,9.6898,9.6296,19.2595c7.978,0.4948,9.9307-5.0422,16.0429-6.4199c0.1404,5.4903-2.3807,8.3123-6.4199,9.623
		c1.9996,5.8714,13.4148-5.5439,12.8396-12.8395C613.6411,911.2754,679.9324,865.2267,766.5997,839.5407z"/>
	<path d="M535.5001,1000.0358c2.5408-3.0755,4.6133-5.8835,6.4187-9.6275C540.9366,984.1553,516.754,1022.9001,535.5001,1000.0358z"
		/>
	<polygon points="541.9199,990.406 541.9188,990.4083 541.9199,990.4128 	"/>
	<path d="M493.7714,1064.2407c1.3375,8.0916,6.8879-5.3499,6.4199-9.6296C497.1953,1056.9648,495.3228,1060.449,493.7714,1064.2407z
		"/>
	<path d="M493.7713,1070.6604c-8.2054,7.8508-13.515,18.5774-16.0494,32.0991
		C484.8773,1093.9324,490.2271,1083.1658,493.7713,1070.6604L493.7713,1070.6604z"/>
	<path d="M477.7219,1105.9694c-4.768,2.7151-4.641,10.3319-6.4199,16.0428c2.4742,7.356,6.7541-9.9641,6.4199-16.0493V1105.9694z"/>
	<path d="M413.5238,1093.1232c14.6452-1.5381,31.1628-55.1703,0-60.9882v0.0067c-9.0279,7.0283-19.2928,12.806-19.2595,28.8822
		c7.5632,0.0737,9.4491-5.5236,19.2595-3.2031C417.6231,1063.5317,419.7096,1087.7733,413.5238,1093.1232z"/>
	<path d="M195.257,1311.4031c2.5746-11.1343-4.7881-12.3446-3.2099-22.4692c13.3718-3.811,44.7914-6.4185,57.7698-0.0039
		c-7.8628-20.6418-116.035-36.7125-96.2887,19.2633C164.6025,1313.1484,181.7486,1318.1907,195.257,1311.4031z"/>
	<polygon points="249.8254,1288.9338 249.8169,1288.9299 249.8187,1288.9338 	"/>
	<path d="M224.1328,1263.2546c9.8102-4.3735-10.9471-11.5022-16.0428-12.8396c-57.0628-14.9462-150.1768,16.4775-105.9335,73.8279
		c13.0402,3.0828,33.7709,6.9949,38.5188-6.4199h0.0067c5.1425-12.6323-13.8628-1.1167-12.8396-9.6298
		C122.7065,1256.8215,187.7873,1243.5605,224.1328,1263.2546z"/>
	<path d="M823.7239,815.4816h-8.2422v8.2423c0.8262-1.925,1.384-4.1894,1.6727-6.5695
		C819.5345,816.8657,821.799,816.3078,823.7239,815.4816z"/>
	<path d="M857.9436,826.701c0.448-26.1138,21.5798,7.3159,25.6792-3.2032c-1.6125-2.7616-4.1122-5.5488-7.1978-8.0161h-34.4204
		C842.9673,823.5717,848.2683,827.3236,857.9436,826.701z"/>
	<path d="M954.2407,842.7506c-5.4836-18.5772-35.8372,7.6571-41.7219-9.6298c-0.7224-6.0654,3.6111-7.0819,3.2031-12.8395
		c-7.7305,1.3174-6.9749-5.8515-16.0496-3.2032v-0.0067C868.5162,852.3134,933.5703,842.7506,954.2407,842.7506z"/>
	<path d="M976.6967,862.0168c15.1534-0.1672,16.4039,13.5552,25.6792,19.2593l0.0068-0.0001
		c-2.0731-24.676-12.7059-40.7256-41.7288-38.5187c-11.6493,8.9879-5.6508,34.3527,12.8396,32.0991
		C974.0352,870.0549,972.3433,863.0065,976.6967,862.0168z"/>
	<path d="M1050.5245,887.6959c-0.4547-14.5315-17.0527-12.9131-32.0991-12.8395c-34.3058,38.1176,38.3851,53.7659,67.4081,48.1486
		c-16.2769-7.2625-44.8116-2.267-48.1486-22.4694C1036.1067,890.391,1053.614,899.3452,1050.5245,887.6959z"/>
	<path d="M1156.4514,1038.5615h16.0493c13.0737-27.8527-25.7595-41.408-41.7288-22.4695l0.0002-0.0067
		c-4.8149,47.6136,30.6277,55.0364,57.7782,70.618C1180.7664,1067.7449,1151.7101,1070.0519,1156.4514,1038.5615z"/>
	<path d="M1162.8711,1141.2783C1159.1931,1161.8752,1172.7014,1148.3669,1162.8711,1141.2783L1162.8711,1141.2783z"/>
	<path d="M1268.7979,1150.9081c14.9128-19.2595,20.062-49.2855,6.4199-73.8279c-24.6428-13.3478-53.7524,5.0021-41.722,35.3088
		c10.3319,0.7089,13.5752-5.6774,25.6792-3.2098c3.0092,2.7084,6.8544,20.4565,0,22.4694
		c-5.3699-4.2599-10.7532-8.5063-22.4694-6.4198c-0.6821,3.5979-3.5577,4.9954-6.4199,6.4198
		c5.2762,31.3099,20.1221,28.3073-6.4198,44.9386c23.4457,2.0464,26.1942-16.6112,44.9386-19.2593
		c-0.7021,4.0323-5.0021,6.5603,3.21,6.4197c19.6138,4.9888,26.6689,22.5496,41.7288,32.0991
		C1311.4226,1169.2512,1285.3757,1152.9678,1268.7979,1150.9081z"/>
	<path d="M1265.5881,1227.939c11.6895,6.2727,11.5354,14.6384,25.6792,12.8396c44.6108-5.6439-2.7418-93.6958-41.7288-54.5618
		c17.5876,0.6688,26.2144,10.1648,28.8892,25.6794C1277.8527,1220.9442,1263.1741,1215.895,1265.5881,1227.939z"/>
	<polygon points="1313.7366,1237.5754 1313.7366,1237.574 1313.7299,1237.5754 	"/>
	<path d="M1451.7556,1385.231c26.6757-65.9099-40.7256-88.5131-102.7169-86.6674c35.3558-19.6941,29.986-91.9973-9.6229-89.8773
		c-13.3677,0.7156-24.7891,9.6627-25.6792,28.8877c39.6504-9.1538,53.5569,43.4036,25.6726,67.4094
		c61.0951-14.1904,99.6606,47.2726,60.988,83.4575C1416.8279,1396.78,1437.525,1394.7871,1451.7556,1385.231z"/>
	<path d="M1329.7861,1317.843c-0.8521,3.1285-2.3435,5.6185-4.0154,7.9277c-2.3092,1.6719-4.7992,3.1633-7.9277,4.0154
		c-30.9744,57.8993,58.5825,97.9382,66.9008,54.9578l-10.7069-10.707l10.707,10.7069
		C1427.7244,1376.4255,1387.6854,1286.8687,1329.7861,1317.843z M1357.9766,1357.9763h-0.0001c-0.0001,0-0.0001,0-0.0001,0
		l0.0001,0.0002c0.9659,6.5059,0.1864,10.6111-8.0343,13.5382c-20.0219-2.053-33.7776-21.5599-25.6792-41.7286
		c3.5437,5.1926,7.2488,10.2241,15.8662,10.343c-0.1189-8.6174-5.1504-12.3225-10.343-15.8662
		c20.1687-8.0984,39.6757,5.6573,41.7286,25.6792C1368.5876,1358.1628,1364.4824,1358.9424,1357.9766,1357.9763z"/>
	<path d="M1509.5406,1439.8193c44.1495-4.3735,12.3447-84.5944-19.2594-44.9387c3.7382,5.8982,17.0393,2.2271,12.8396,16.0497
		c-3.6111,24.208-34.8676,20.7708-51.3584,32.0989c43.8018,4.6812,109.0698-2.3739,115.5564,48.1487
		c-2.7217,4.7679-10.3384,4.641-16.0494,6.4197c19.0656,35.6166,64.8802,11.3417,64.2047-16.0494
		C1614.4309,1439.0168,1549.865,1441.4176,1509.5406,1439.8193z"/>
	<path d="M1467.812,1459.0854h-0.0002c15.4478,1.7053,27.2175,7.0352,28.8893,22.4695c0.9348,5.9834-4.7732,5.3239-8.9805,6.1655
		h-0.0001v0.0001c-0.8417,4.2073-0.1821,9.9153-6.1655,8.9805c-15.4343-1.6718-20.7642-13.4415-22.4695-28.8893v0.0002
		c-17.3535,14.7722,0.9763,65.1477,22.4695,70.6178c9.496,2.4141,13.9966-2.0863,22.4692-3.2032
		c5.2173-6.9731,7.8247-15.3442,7.8179-23.3845c8.0403,0.0068,16.4114-2.6006,23.3845-7.8179
		c1.1169-8.4727,5.6173-12.9733,3.2032-22.4692C1532.9597,1460.0618,1482.5842,1441.7319,1467.812,1459.0854z"/>
	<path d="M1162.8525,1162.8525c0,0,0,0,0.0001,0l-0.0001-0.0002c-25.5156-130.2833-109.4387-222.0173-198.9822-275.1365
		c-36.6196-21.7201-76.3154-34.2991-115.5565-51.3584c3.7783-0.5015,9.108,0.5484,9.6298-3.2098
		c-10.4569,1.5909-20.3351-2.4708-29.6372-4.8412l-0.0001-0.0001v0.0001h-0.0001l0.0002,0.0001
		c2.3704,9.3021,6.4321,19.1803,4.8412,29.6372c3.7582-0.5217,2.7084-5.8514,3.2098-9.6298
		c17.0593,39.241,29.6382,78.9368,51.3584,115.5565c53.1191,89.5435,144.853,173.4666,275.1366,198.9822H1162.8525z
		 M836.3641,838.6841c-0.869-1.4229-1.6207-2.9633-2.2782-4.5982l-2.8899-2.8899l2.8899,2.8898
		c1.6349,0.6575,3.1753,1.4092,4.5981,2.2783c-0.9243-0.1554-1.8452-0.2982-2.7681-0.4482l3.6526,3.6527l-3.6526-3.6526
		C836.0659,836.8389,836.2087,837.7598,836.3641,838.6841z M1048.2178,1114.7292
		c-92.6401-51.4227-174.2524-145.1928-201.3438-267.8552c122.6624,27.0912,216.4325,108.7035,267.8552,201.3437
		c18.3796,33.1116,31.1758,68.6897,38.8252,105.3367C1116.9075,1145.905,1081.3293,1133.1089,1048.2178,1114.7292z"/>
	<path d="M1448.5129,1448.5128l7.5972,7.5973l-7.5973-7.5972c1.8903,4.8613,4.6609,8.8416,7.376,12.8789
		c1.3539-0.7325,2.6926-1.2026,4.02-1.4832h-0.0001c0.2805-1.3274,0.7506-2.666,1.4832-4.0199
		C1457.3545,1453.1737,1453.3743,1450.4031,1448.5129,1448.5128z"/>
	<path d="M1127.5688,1016.092c22.6365-42.17-17.7415-114.5267-57.7849-73.8277v19.2393
		c-52.9619-53.9619-124.337-106.7172-205.4205-121.9629c86.6674,25.686,152.9586,71.7347,208.6438,128.3962
		c-0.5752,7.2957,10.84,18.7109,12.8396,12.8395c-4.0392-1.3107-6.5603-4.1327-6.4198-9.623
		c6.1121,1.3776,8.0648,6.9147,16.0428,6.4199c0.0602-9.5697-0.2943-19.5605,9.6296-19.2595
		C1128.7993,961.3631,1120.8481,996.0569,1127.5688,1016.092z"/>
	<path d="M1028.0619,961.5439c-39.5422-38.6079-101.14-76.5648-161.8457-95.3278l10.1732,10.1732
		c115.4554,38.3973,210.9965,132.4658,248.5444,248.5445c-116.0786-37.548-210.1472-133.089-248.5444-248.5444l-10.1732-10.1732
		c18.7631,60.7057,56.7198,122.3035,95.3278,161.8457c41.9897,43.0131,98.822,83.2719,170.8333,104.3153
		C1111.3337,1060.366,1071.075,1003.5338,1028.0619,961.5439z"/>
	<path d="M1089.0444,990.4083c1.8054,3.744,3.8779,6.552,6.4187,9.6275C1114.2092,1022.9001,1090.0266,984.1553,1089.0444,990.4083z
		"/>
	<polygon points="1089.0433,990.4128 1089.0444,990.4083 1089.0433,990.406 	"/>
	<path d="M1130.772,1054.6111c-0.468,4.2798,5.0824,17.7212,6.4199,9.6296
		C1135.6404,1060.449,1133.7679,1056.9648,1130.772,1054.6111z"/>
	<path d="M1137.1919,1070.6604c3.5442,12.5054,8.894,23.272,16.0494,32.0991
		C1150.7069,1089.2378,1145.3972,1078.5112,1137.1919,1070.6604z"/>
	<path d="M1159.6611,1122.0122c-1.7788-5.7109-1.6519-13.3278-6.4198-16.0428v-0.0065
		C1152.907,1112.0481,1157.187,1129.3682,1159.6611,1122.0122z"/>
	<path d="M1236.699,1061.0239c0.0332-16.0762-10.2317-21.8539-19.2595-28.8822v-0.0067c-31.1628,5.8179-14.6453,59.4501,0,60.9882
		c-6.1858-5.3499-4.0994-29.5914,0-35.3024C1227.2498,1055.5004,1229.1357,1061.0977,1236.699,1061.0239z"/>
	<path d="M1381.1462,1288.9299c12.9785-6.4146,44.3979-3.8071,57.7698,0.0039c1.5784,10.1246-5.7844,11.335-3.2098,22.4692
		c13.5084,6.7876,30.6545,1.7454,41.7289-3.2098C1497.1814,1252.2174,1389.009,1268.2881,1381.1462,1288.9299z"/>
	<polygon points="1381.1445,1288.9338 1381.1462,1288.9299 1381.1378,1288.9338 	"/>
	<path d="M1490.2813,1317.823h0.0068c4.7478,13.4148,25.4785,9.5027,38.5188,6.4199
		c44.2432-57.3503-48.8708-88.774-105.9336-73.8279c-5.0957,1.3374-25.853,8.4661-16.0428,12.8396
		c36.3455-19.6941,101.4264-6.4331,96.2904,44.9386C1504.144,1316.7063,1485.1388,1305.1907,1490.2813,1317.823z"/>
	<polygon points="1111.9261,1111.926 1111.926,1111.926 1111.9261,1111.9261 	"/>
	<path d="M1111.926,1111.926c-41.4939-106.6738-131.7788-192.1794-226.8374-226.8375l20.7882,20.7883
		c69.2072,31.5197,127.0697,81.7543,163.9137,139.131c9.9102,15.4304,18.6228,32.7018,26.0903,50.873
		c-18.1713-7.4675-35.4426-16.1802-50.873-26.0903c-57.3767-36.844-107.6113-94.7065-139.131-163.9137l-20.7882-20.7882
		C919.7466,980.1472,1005.2522,1070.4321,1111.926,1111.926z"/>
	<path d="M823.4978,883.6228c10.519-4.0993-22.9106-25.2312,3.2032-25.6792c0.6226-9.6752-3.1293-14.9763-11.2194-15.939v34.4205
		C817.949,879.5106,820.7361,882.0102,823.4978,883.6228z"/>
	<path d="M817.0714,899.6723h0.0067c-2.6483,9.0747,4.5206,8.3191,3.2031,16.0496c5.7577,0.408,6.7742-3.9254,12.8396-3.2031
		c17.2869,5.8848-8.9475,36.2384,9.6298,41.722C842.7506,933.5703,852.3134,868.5162,817.0714,899.6723z"/>
	<path d="M881.2761,1002.3759c-5.7041-9.2752-19.4265-10.5258-19.2593-25.6792c0.9896-4.3534,8.0381-2.6615,12.8395-3.2031
		c2.2535-18.4904-23.1112-24.4889-32.099-12.8396c-2.2069,29.0229,13.8428,39.6556,38.5187,41.7288L881.2761,1002.3759z"/>
	<path d="M874.8563,1018.4254c-0.0736,15.0464-1.6919,31.6444,12.8395,32.0991c11.6494,3.0895,2.6952-14.4178,12.8397-12.8396
		c20.2024,3.3369,15.2069,31.8717,22.4694,48.1486C928.6222,1056.8105,912.9739,984.1196,874.8563,1018.4254z"/>
	<path d="M1038.5615,1156.4514c31.4904-4.7413,29.1833,24.3149,48.1418,32.099c-15.5815-27.1505-23.0044-62.5931-70.6179-57.7782
		l0.0066-0.0002c-18.9385,15.9692-5.3833,54.8025,22.4695,41.7288V1156.4514z"/>
	<path d="M1141.2783,1162.8711C1148.3669,1172.7014,1161.8752,1159.1931,1141.2783,1162.8711L1141.2783,1162.8711z"/>
	<path d="M1188.3264,1188.3264c36.509-10.4558,45.4581-88.632,6.6438-91.9934c-21.5399-1.8657-38.626,22.3156-19.2595,44.9387
		c14.0767,3.377,10.5459-10.8536,22.4692-9.6232c17.835,20.5132-3.7678,38.118-13.4341,53.0973
		c-14.9792,9.6663-32.5841,31.269-53.0973,13.4341c-1.2305-11.9233,13.0001-8.3926,9.6232-22.4692
		c-22.6232-19.3665-46.8044-2.2804-44.9387,19.2595C1099.6945,1233.7845,1177.8706,1224.8354,1188.3264,1188.3264z"/>
	<path d="M1250.9113,1250.9113c6.8864-5.954,11.5406-14.2396,11.4669-22.9656c-0.2385-29.0326-43.3937-48.9645-71.6235-37.191
		c-11.7734,28.2299,8.1584,71.385,37.191,71.6235C1236.6716,1262.4519,1244.9573,1257.7976,1250.9113,1250.9113z"/>
	<path d="M1304.2124,1304.2124c32.0005,0.6741,42.1968-47.3633,9.5242-57.0139c-17.7893-5.2466-34.8135,4.8237-53.1808,13.3572
		l5.1234,5.1235l-5.1235-5.1234c-8.5334,18.3673-18.6038,35.3915-13.3572,53.1808
		C1256.8491,1346.4092,1304.8865,1336.2129,1304.2124,1304.2124z M1275.9261,1275.9261c5.2368-1.1864,10.1383-0.2924,15.3412,6.588
		c-0.5315,2.3862-2.0394,3.7958-3.5209,5.2322h-0.0001v0.0001c-1.4364,1.4814-2.8459,2.9894-5.2322,3.5209
		C1275.6338,1286.0645,1274.7397,1281.163,1275.9261,1275.9261z"/>
	<path d="M1163.7476,1272.0144c0.1406-8.212-2.3873-3.9121-6.4197-3.21c2.6481-18.7444,21.3057-21.4929,19.2593-44.9386
		c-16.6313,26.5419-13.6287,11.696-44.9386,6.4198c-1.4244,2.8622-2.8219,5.7378-6.4198,6.4199
		c-2.0865,11.7162,2.1599,17.0995,6.4198,22.4694c-2.0128,6.8544-19.761,3.0092-22.4694,0
		c-2.4675-12.104,3.9187-15.3473,3.2098-25.6793c-30.3068-12.0303-48.6566,17.0793-35.3088,41.7222
		c24.5424,13.6421,54.5684,8.4929,73.8279-6.4199c2.0597,16.5779,18.3431,42.6248,44.9386,44.9453
		C1186.2971,1298.6833,1168.7363,1291.6282,1163.7476,1272.0144z"/>
	<path d="M1320.7651,1320.7651c5.9458-4.6769,10.3646-10.0839,12.2241-15.7817c-4.3123,3.7809-10.8689,7.49-18.1017,9.9041
		l2.9388,2.9388l-2.939-2.9387c-2.4141,7.2328-6.1232,13.7894-9.9041,18.1017
		C1310.6814,1331.1298,1316.0883,1326.7109,1320.7651,1320.7651z"/>
	<path d="M1240.7786,1291.2673c1.7988-14.1438-6.5669-13.9897-12.8396-25.6792c-12.0439-2.4141-6.9948,12.2645-16.0427,12.8396
		c-15.5146-2.6748-25.0106-11.3015-25.6794-28.8892C1147.0828,1288.5255,1235.1346,1335.8782,1240.7786,1291.2673z"/>
	<path d="M1436.579,1436.579c36.9045-3.3077,64.5212-32.035,34.4362-54.5377c-19.7275-0.4749-19.6072,18.9048-35.309,22.4692
		c-11.9766,1.7306-22.0831,1.592-30.9657,0.2297h-0.0001c-0.0001,0-0.0001,0-0.0001,0l0.0001,0.0002
		c1.3622,8.8826,1.5007,18.9891-0.2299,30.9657c-3.5645,15.7018-22.9441,15.5814-22.4692,35.309
		C1404.5439,1501.1002,1433.2712,1473.4835,1436.579,1436.579z"/>
	<polygon points="1237.5754,1313.7299 1237.574,1313.7366 1237.5754,1313.7366 	"/>
	<path d="M1388.4409,1400.3972c-36.1849,38.6726-97.6479,0.1071-83.4575-60.9882c-24.0059,27.8844-76.5632,13.9779-67.4094-25.6725
		c-19.225,0.8901-28.1721,12.3115-28.8877,25.6792c-2.12,39.6089,70.1832,44.9788,89.8774,9.6229
		c-1.8458,61.9913,20.7573,129.3926,86.6672,102.7169C1394.7871,1437.525,1396.78,1416.8279,1388.4409,1400.3972z"/>
	<path d="M1497.5975,1551.2694c-1.7787,5.7111-1.6517,13.3278-6.4197,16.0494c-50.5226-6.4866-43.4675-71.7546-48.1487-115.5564
		c-11.3281,16.4908-7.8909,47.7473-32.0989,51.3584c-13.8226,4.1997-10.1515-9.1014-16.0497-12.8396
		c-39.6556,31.6041,40.5652,63.4089,44.9387,19.2594c1.5983,40.3243-0.8025,104.8903,41.7288,105.9335
		C1508.9392,1616.1497,1533.2141,1570.335,1497.5975,1551.2694z"/>
	<path d="M958.3137,1105.0995c-0.301-9.924,9.6899-9.5695,19.2595-9.6298c0.4949-7.9779-5.0422-9.9307-6.4198-16.0427
		c5.4904-0.1406,8.3123,2.3806,9.6229,6.4198c5.8715-1.9996-5.5437-13.4148-12.8395-12.8397
		c-56.6615-55.6851-102.7102-121.9763-128.3961-208.6437c15.2456,81.0835,68.001,152.4586,121.9629,205.4205h-19.2393
		c-40.699,40.0435,31.6576,80.4214,73.8276,57.7849C996.0569,1120.8481,961.363,1128.7993,958.3137,1105.0995z"/>
	<path d="M1000.0358,1095.4631c-3.0756-2.5408-5.8835-4.6133-9.6276-6.4187
		C984.1553,1090.0266,1022.9001,1114.2091,1000.0358,1095.4631z"/>
	<polygon points="990.406,1089.0433 990.4082,1089.0444 990.4128,1089.0433 	"/>
	<path d="M1054.6111,1130.772c2.3538,2.996,5.8379,4.8684,9.6296,6.4199C1072.3323,1135.8544,1058.8909,1130.304,1054.6111,1130.772
		z"/>
	<path d="M1070.6604,1137.1919c7.8508,8.2053,18.5774,13.515,32.0991,16.0494
		C1093.9324,1146.0859,1083.1658,1140.7361,1070.6604,1137.1919z"/>
	<path d="M1105.9629,1153.2413h0.0065c2.7151,4.7679,10.3319,4.641,16.0428,6.4198
		C1129.3682,1157.187,1112.0481,1152.907,1105.9629,1153.2413z"/>
	<path d="M1057.8208,1217.4395c5.7109-4.0994,29.9525-6.1858,35.3024,0c-1.5381-14.6453-55.1703-31.1628-60.9882,0h0.0066
		c7.0283,9.0278,12.8062,19.2927,28.8823,19.2595C1061.0977,1229.1356,1055.5004,1227.2498,1057.8208,1217.4395z"/>
	<path d="M1308.1932,1477.4349c4.9552-11.0742,9.9974-28.2203,3.2098-41.7288c-11.1343-2.5746-12.3446,4.7882-22.4692,3.2098
		c-3.811-13.3718-6.4185-44.7913-0.0039-57.7698C1268.2881,1389.009,1252.2174,1497.1814,1308.1932,1477.4349z"/>
	<polygon points="1288.9338,1381.1378 1288.9299,1381.1462 1288.9338,1381.1445 	"/>
	<path d="M1317.823,1490.2881v-0.0068c-12.6323-5.1426-1.1167,13.8628-9.6298,12.8396
		c-51.3717,5.136-64.6327-59.9449-44.9386-96.2904c-4.3735-9.8102-11.5022,10.9471-12.8396,16.0428
		c-14.9462,57.0627,16.4775,150.1768,73.8279,105.9336C1327.3257,1515.7666,1331.2378,1495.0359,1317.823,1490.2881z"/>
	<path d="M885.0886,745.8746l20.7882-20.7882c31.5197-69.2072,81.7543-127.0696,139.131-163.9138
		c15.4304-9.9101,32.7017-18.6227,50.873-26.0903c-7.4675,18.1714-16.1802,35.4427-26.0903,50.873
		c-36.844,57.3767-94.7065,107.6114-163.9137,139.131L885.0886,745.8746c95.0586-34.6581,185.3435-120.1636,226.8375-226.8375
		C1005.2522,560.531,919.7466,650.816,885.0886,745.8746z"/>
	<path d="M826.701,773.0196c-26.1139-0.4481,7.3158-21.58-3.2032-25.6792c-2.7617,1.6126-5.5488,4.1122-8.0161,7.1976v34.4205
		C823.5718,787.9959,827.3236,782.6948,826.701,773.0196z"/>
	<path d="M817.0781,731.2909h-0.0067c35.2419,31.1561,25.6792-33.898,25.6792-54.5684c-18.5773,5.4836,7.6571,35.8372-9.6298,41.722
		c-6.0654,0.7222-7.0819-3.6111-12.8396-3.2031C821.5988,722.9718,814.4298,722.2162,817.0781,731.2909z"/>
	<path d="M874.8563,657.4697c-4.8014-0.5416-11.8499,1.1503-12.8395-3.2031c-0.1672-15.1535,13.5552-16.404,19.2593-25.6792
		l-0.0001-0.0068c-24.6759,2.0731-40.7256,12.7059-38.5187,41.7288C851.7451,681.9586,877.1099,675.96,874.8563,657.4697z"/>
	<path d="M923.0049,545.1298c-7.2625,16.2769-2.267,44.8116-22.4694,48.1485c-10.1445,1.5782-1.1903-15.9291-12.8397-12.8396
		c-14.5314,0.4548-12.9131,17.0527-12.8395,32.0991C912.9739,646.8436,928.6222,574.1526,923.0049,545.1298z"/>
	<path d="M1016.092,500.1913l-0.0066-0.0002c47.6135,4.8149,55.0364-30.6278,70.6179-57.7783
		c-18.9585,7.784-16.6515,36.8403-48.1418,32.0991v-16.0494C1010.7087,445.3888,997.1536,484.222,1016.092,500.1913z"/>
	<path d="M1141.2783,468.0921C1161.8752,471.7701,1148.3669,458.2618,1141.2783,468.0921L1141.2783,468.0921z"/>
	<path d="M1096.333,435.9931c-1.8657,21.5399,22.3156,38.6258,44.9387,19.2594c3.377-14.0767-10.8536-10.5458-9.6232-22.4692
		c20.5132-17.835,38.118,3.7679,53.0973,13.4341c9.6663,14.9792,31.269,32.5841,13.4341,53.0973
		c-11.9233,1.2305-8.3926-13.0001-22.4692-9.6231c-19.3665,22.6231-2.2804,46.8044,19.2595,44.9385
		c38.8143-3.3613,29.8652-81.5374-6.6438-91.9933C1177.8706,406.1277,1099.6945,397.1787,1096.333,435.9931z"/>
	<path d="M1190.7546,440.2086c28.2299,11.7735,71.385-8.1584,71.6235-37.191c0.0737-8.726-4.5806-17.0116-11.4669-22.9656
		c-5.954-6.8863-14.2396-11.5407-22.9656-11.4669C1198.9131,368.8236,1178.9812,411.9787,1190.7546,440.2086z"/>
	<path d="M1247.1985,317.2266c-5.2466,17.7894,4.8237,34.8136,13.3572,53.1808l6.1482-6.1481l-6.1481,6.1482
		c18.3673,8.5336,35.3915,18.6038,53.1808,13.3573c32.6726-9.6506,22.4763-57.688-9.5242-57.014
		C1304.8865,294.7502,1256.8491,284.554,1247.1985,317.2266z M1275.9261,355.0371c-1.1864-5.2368-0.2925-10.1383,6.588-15.3412
		c2.3862,0.5314,3.7958,2.0394,5.2322,3.5209v0.0001l0.0001,0.0001c1.4814,1.4364,2.9894,2.8459,3.5209,5.2321
		C1286.0645,355.3295,1281.163,356.2234,1275.9261,355.0371z"/>
	<path d="M1112.389,397.4675c0.7089-10.3318-5.6774-13.5752-3.2098-25.6792c2.7084-3.0092,20.4565-6.8544,22.4694,0
		c-4.2599,5.3699-8.5063,10.7532-6.4198,22.4694c3.5979,0.6821,4.9954,3.5577,6.4198,6.4199
		c31.3099-5.2762,28.3073-20.122,44.9386,6.4199c2.0464-23.4457-16.6112-26.1942-19.2593-44.9387
		c4.0323,0.7022,6.5603,5.0021,6.4197-3.2098c4.9888-19.6139,22.5496-26.6691,32.0991-41.7288
		c-26.5955,2.3205-42.8789,28.3674-44.9386,44.9453c-19.2595-14.9128-49.2855-20.062-73.8279-6.4199
		C1063.7324,380.3882,1082.0823,409.4979,1112.389,397.4675z"/>
	<path d="M1314.8875,316.0756l4.4082-4.4081l-4.4081,4.4083c7.2328,2.4141,13.7894,6.1232,18.1017,9.9041
		c-1.8595-5.6979-6.2783-11.1048-12.2241-15.7817c-4.6769-5.9458-10.0837-10.3646-15.7817-12.2242
		C1308.7643,302.2863,1312.4734,308.8428,1314.8875,316.0756z"/>
	<path d="M1186.2168,381.4247c0.6688-17.5877,10.1648-26.2144,25.6794-28.8892c9.048,0.5751,3.9988,15.2537,16.0427,12.8396
		c6.2727-11.6894,14.6384-11.5355,12.8396-25.6792C1235.1346,295.085,1147.0828,342.4377,1186.2168,381.4247z"/>
	<path d="M1404.5105,195.257c1.7306,11.9766,1.592,22.0831,0.23,30.9656l-0.0002,0.0002c0,0,0,0,0.0001,0
		c0,0.0001,0,0.0001,0,0.0001l0.0001-0.0002c8.8826-1.3621,18.9891-1.5007,30.9657,0.2299
		c15.7018,3.5644,15.5814,22.9441,35.309,22.4693c30.0851-22.5028,2.4684-51.23-34.4362-54.5378
		c-3.3077-36.9045-32.035-64.5212-54.5377-34.4362C1381.5664,179.6756,1400.946,179.5552,1404.5105,195.257z"/>
	<polygon points="1237.5754,317.2267 1237.574,317.2266 1237.5754,317.2333 	"/>
	<path d="M1237.574,317.2266c-9.1538-39.6503,43.4036-53.5569,67.4094-25.6725c-14.1904-61.0952,47.2726-99.6608,83.4575-60.9882
		c8.3391-16.4306,6.3462-37.1277-3.21-51.3584c-65.9099-26.6756-88.5131,40.7256-86.6672,102.717
		c-19.6942-35.3559-91.9974-29.986-89.8774,9.623C1209.4019,304.9151,1218.349,316.3366,1237.574,317.2266z"/>
	<path d="M1317.843,301.1772c3.1285,0.8521,5.6185,2.3433,7.9277,4.0153c1.6719,2.3093,3.1633,4.7992,4.0154,7.9277
		c57.8993,30.9744,97.9382-58.5825,54.9578-66.9007l-8.9226,8.9224l8.9225-8.9225
		C1376.4255,203.2388,1286.8687,243.2778,1317.843,301.1772z M1329.7861,306.7003c5.1926-3.5436,10.2241-7.2488,10.343-15.8662
		l0.0001-0.0001h-0.0001c-8.6174,0.119-12.3225,5.1505-15.8662,10.3431c-8.0984-20.1689,5.6573-39.6757,25.6792-41.7287
		c8.2207,2.9271,9.0002,7.0323,8.0344,13.5381l-0.0002,0.0002c0,0,0,0,0.0001,0c0,0.0001,0,0.0001,0,0.0001l0.0001-0.0002
		c6.5059-0.9659,10.6111-0.1863,13.5382,8.0344C1369.4618,301.0429,1349.9548,314.7986,1329.7861,306.7003z"/>
	<path d="M1394.8806,140.682c5.8982-3.7382,2.2271-17.0392,16.0497-12.8396c24.208,3.6111,20.7708,34.8675,32.0989,51.3585
		c4.6812-43.8018-2.3739-109.0698,48.1487-115.5565c4.7679,2.7217,4.641,10.3385,6.4197,16.0495
		c35.6166-19.0656,11.3417-64.8802-16.0494-64.2048c-42.5313,1.0432-40.1305,65.6091-41.7288,105.9335
		C1435.4458,77.2731,1355.225,109.0778,1394.8806,140.682z"/>
	<path d="M1504.0242,95.7366c-8.4727-1.1168-12.9733-5.6172-22.4692-3.2032c-21.4932,5.4701-39.823,55.8456-22.4695,70.6179v0.0001
		c1.7053-15.4478,7.0352-27.2174,22.4695-28.8892c5.9834-0.9348,5.324,4.7733,6.1655,8.9804v0.0001v0.0001l0.0001-0.0001
		c4.2072,0.8417,9.9153,0.1822,8.9805,6.1656c-1.6718,15.4343-13.4415,20.7641-28.8893,22.4694h0.0002
		c14.7722,17.3536,65.1477-0.9764,70.6178-22.4694c2.4141-9.496-2.0863-13.9966-3.2032-22.4693
		c-6.9731-5.2172-15.3442-7.8246-23.3845-7.8179C1511.8489,111.0809,1509.2415,102.7099,1504.0242,95.7366z"/>
	<path d="M961.5037,561.1793c-53.9619,52.9619-106.7173,124.337-121.9629,205.4204
		c25.6859-86.6674,71.7346-152.9586,128.3961-208.6437c7.2958,0.5751,18.7109-10.84,12.8395-12.8396
		c-1.3107,4.0391-4.1326,6.5603-9.6229,6.4199c1.3776-6.1122,6.9147-8.0649,6.4198-16.0429
		c-9.5696-0.0601-19.5605,0.2943-19.2595-9.6296c3.0493-23.6998,37.7432-15.7486,57.7783-22.4693
		c-42.17-22.6365-114.5266,17.7414-73.8276,57.7849H961.5037z"/>
	<path d="M990.4082,541.9188c3.744-1.8054,6.552-3.878,9.6276-6.4187C1022.9001,516.754,984.1553,540.9366,990.4082,541.9188z"/>
	<polygon points="990.4128,541.9199 990.4082,541.9188 990.406,541.9199 	"/>
	<path d="M1064.2407,493.7714c-3.7917,1.5515-7.2759,3.4239-9.6296,6.4199
		C1058.8909,500.6593,1072.3323,495.1089,1064.2407,493.7714z"/>
	<path d="M1070.6604,493.7714c12.5054-3.5443,23.272-8.8941,32.0991-16.0496
		C1089.2378,480.2563,1078.5112,485.5659,1070.6604,493.7714L1070.6604,493.7714z"/>
	<path d="M1105.9694,477.7218h-0.0065c6.0852,0.3343,23.4053-3.9456,16.0493-6.4198
		C1116.3013,473.0809,1108.6844,472.9538,1105.9694,477.7218z"/>
	<path d="M1093.1232,413.5238c-5.3499,6.1858-29.5914,4.0994-35.3024,0c-2.3204-9.8104,3.2769-11.6962,3.2031-19.2595
		c-16.0762-0.0333-21.854,10.2316-28.8823,19.2595h-0.0066C1037.9529,444.6866,1091.5851,428.169,1093.1232,413.5238z"/>
	<path d="M1311.4031,195.257c6.7876-13.5084,1.7454-30.6545-3.2098-41.7288c-55.9758-19.7463-39.9052,88.4258-19.2633,96.2887
		c-6.4146-12.9784-3.8071-44.3979,0.0039-57.7698C1299.0585,190.4689,1300.2688,197.8316,1311.4031,195.257z"/>
	<polygon points="1288.9338,249.8187 1288.9299,249.8169 1288.9338,249.8254 	"/>
	<path d="M1263.2546,224.1327c-19.6941-36.3454-6.4331-101.4263,44.9386-96.2904c8.5131-1.0232-3.0026,17.9821,9.6298,12.8396
		v-0.0067c13.4148-4.7479,9.5027-25.4786,6.4199-38.5188c-57.3503-44.2432-88.774,48.8707-73.8279,105.9335
		C1251.7524,213.1857,1258.8811,233.9429,1263.2546,224.1327z"/>
	<path d="M817.1544,813.8088c-0.2887-2.3802-0.8466-4.6445-1.6727-6.5696v8.2424h8.2422
		C821.799,814.6553,819.5345,814.0975,817.1544,813.8088z"/>
	<path d="M857.9436,804.2621c-9.6753-0.6226-14.9763,3.1293-15.939,11.2194h34.4204c3.0856-2.4673,5.5852-5.2546,7.1978-8.0161
		C879.5234,796.9462,858.3916,830.376,857.9436,804.2621z"/>
	<path d="M899.6724,813.8918v-0.0067c9.0747,2.6482,8.3191-4.5207,16.0496-3.2033c0.408-5.7576-3.9255-6.7741-3.2031-12.8395
		c5.8848-17.2869,36.2383,8.9474,41.7219-9.6298C933.5703,788.2126,868.5162,778.6498,899.6724,813.8918z"/>
	<path d="M1002.3759,749.687c-9.2753,5.7042-10.5258,19.4266-25.6792,19.2594c-4.3534-0.9897-2.6615-8.0381-3.2031-12.8395
		c-18.4904-2.2536-24.4889,23.1111-12.8396,32.0991c29.0228,2.2068,39.6556-13.8428,41.7288-38.5187L1002.3759,749.687z"/>
	<path d="M1085.8335,707.9583c-29.0229-5.6172-101.7139,10.0309-67.4081,48.1486c15.0464,0.0735,31.6444,1.6919,32.0991-12.8395
		c3.0895-11.6494-14.4178-2.6951-12.8396-12.8397C1041.0219,710.2253,1069.5566,715.2207,1085.8335,707.9583z"/>
	<path d="M1130.7722,614.8778l-0.0002-0.0067c15.9692,18.9384,54.8025,5.3832,41.7288-22.4694h-16.0493
		c-4.7413-31.4904,24.3149-29.1833,32.099-48.1419C1161.3999,559.8414,1125.9573,567.2643,1130.7722,614.8778z"/>
	<path d="M1162.8711,489.6849C1172.7014,482.5963,1159.1931,469.0879,1162.8711,489.6849L1162.8711,489.6849z"/>
	<path d="M1272.0144,467.2156c-8.212-0.1405-3.9121,2.3874-3.21,6.4197c-18.7444-2.648-21.4929-21.3055-44.9386-19.2592
		c26.5419,16.6313,11.696,13.6286,6.4198,44.9386c2.8622,1.4244,5.7378,2.822,6.4199,6.4199
		c11.7162,2.0865,17.0995-2.16,22.4694-6.4199c6.8544,2.0128,3.0092,19.761,0,22.4693c-12.104,2.4677-15.3473-3.9186-25.6792-3.2098
		c-12.0304,30.3068,17.0792,48.6566,41.722,35.3088c13.6421-24.5424,8.4929-54.5683-6.4199-73.8279
		c16.5779-2.0596,42.6248-18.3432,44.9453-44.9386C1298.6833,444.666,1291.6282,462.2268,1272.0144,467.2156z"/>
	<path d="M1249.5386,444.7463c38.9869,39.134,86.3396-48.9177,41.7288-54.5616c-14.1438-1.7988-13.9897,6.5668-25.6792,12.8397
		c-2.4141,12.0438,12.2645,6.9947,12.8396,16.0427C1275.7529,434.5816,1267.1262,444.0776,1249.5386,444.7463z"/>
	<polygon points="1313.7299,393.3878 1313.7366,393.3892 1313.7366,393.3878 	"/>
	<path d="M1400.3972,242.5223c38.6726,36.185,0.1071,97.648-60.988,83.4575c27.8843,24.0059,13.9778,76.5633-25.6726,67.4094
		c0.8901,19.225,12.3115,28.1722,25.6792,28.8877c39.6089,2.1201,44.9788-70.1832,9.6229-89.8773
		c61.9913,1.8458,129.3926-20.7574,102.7169-86.6674C1437.525,236.1761,1416.8279,234.1832,1400.3972,242.5223z"/>
	<path d="M1567.3188,139.7854c-6.4866,50.5226-71.7546,43.4675-115.5564,48.1487c16.4908,11.3281,47.7473,7.8909,51.3584,32.0989
		c4.1997,13.8227-9.1014,10.1514-12.8396,16.0496c31.6041,39.6558,63.4089-40.5651,19.2594-44.9385
		c40.3243-1.5983,104.8903,0.8025,105.9335-41.7288c0.6755-27.3912-45.1392-51.6661-64.2047-16.0494
		C1556.9805,135.1444,1564.5972,135.0174,1567.3188,139.7854z"/>
	<path d="M828.3062,802.6569c0.0001,0,0,0,0.0002,0v-0.0001c9.3022-2.3705,19.1804-6.4321,29.6372-4.8412
		c-0.5217-3.7582-5.8514-2.7083-9.6298-3.2098c39.2411-17.0593,78.9369-29.6383,115.5565-51.3584
		c89.5435-53.1192,173.4666-144.8533,198.9822-275.1366l0.0001-0.0002c-0.0001,0-0.0001,0.0001-0.0001,0.0001
		c0-0.0001,0-0.0001,0-0.0002l-0.0002,0.0002c-130.2832,25.5155-222.0173,109.4386-275.1365,198.9821
		c-21.7202,36.6196-34.2991,76.3155-51.3584,115.5565c-0.5015-3.7783,0.5483-9.1082-3.2098-9.6298
		c1.5909,10.4568-2.4706,20.335-4.8412,29.6371L828.3062,802.6569z M1048.2178,516.2339
		c33.1116-18.3797,68.6897-31.1758,105.3367-38.8251c-7.6494,36.6468-20.4456,72.2249-38.8252,105.3365
		c-51.4227,92.6403-145.1929,174.2525-267.8552,201.3438C873.9653,661.4268,955.5776,567.6567,1048.2178,516.2339z
		 M834.0859,796.8773c0.6575-1.6349,1.4092-3.1753,2.2782-4.5982c-0.1554,0.9244-0.2982,1.8453-0.4481,2.7681l3.6526-3.6526
		l-3.6526,3.6527c0.9229-0.15,1.8438-0.2928,2.7681-0.4482C837.2612,795.4681,835.7208,796.2198,834.0859,796.8773l-2.3119,2.3119
		L834.0859,796.8773z"/>
	<path d="M1461.3918,175.0744c-0.7325-1.3539-1.2026-2.6926-1.4832-4.02l0.0001-0.0001c-1.3274-0.2803-2.6661-0.7505-4.02-1.4831
		c-2.7151,4.0374-5.4857,8.0176-7.376,12.879l7.5973-7.5973l-7.5972,7.5974
		C1453.3743,180.5601,1457.3545,177.7895,1461.3918,175.0744z"/>
	<path d="M864.3634,791.4225c81.0835-15.2457,152.4586-68.001,205.4205-121.9629v19.2393
		c40.0435,40.699,80.4214-31.6577,57.7849-73.8277c-6.7207,20.0352,1.2305,54.7289-22.4694,57.7783
		c-9.924,0.301-9.5695-9.6898-9.6296-19.2595c-7.978-0.4948-9.9308,5.0422-16.0428,6.4199
		c-0.1405-5.4903,2.3806-8.3123,6.4198-9.623c-1.9996-5.8714-13.4148,5.5438-12.8396,12.8395
		C1017.322,719.6878,951.0308,765.7365,864.3634,791.4225z"/>
	<path d="M961.5439,602.9013c-38.6079,39.5422-76.5647,101.14-95.3278,161.8456v0.0001l0.0001-0.0001
		c60.7056-18.7629,122.3033-56.7198,161.8456-95.3277c43.0131-41.9898,83.2719-98.822,104.3153-170.8332
		C1060.366,519.6295,1003.5337,559.8883,961.5439,602.9013z M876.3894,754.5739l-6.7822,6.782L876.3894,754.5739
		c38.3972-115.4555,132.4658-210.9966,248.5444-248.5445C1087.3859,622.1081,991.8448,716.1765,876.3894,754.5739z"/>
	<path d="M1095.4631,630.9274c-2.5408,3.0756-4.6133,5.8836-6.4187,9.6276C1090.0266,646.8079,1114.2092,608.063,1095.4631,630.9274
		z"/>
	<polygon points="1089.0433,640.5571 1089.0444,640.5549 1089.0433,640.5504 	"/>
	<path d="M1137.1919,566.7225c-1.3375-8.0917-6.8879,5.3499-6.4199,9.6296
		C1133.7679,573.9982,1135.6404,570.5142,1137.1919,566.7225z"/>
	<path d="M1153.2413,528.2036c-7.1554,8.8273-12.5052,19.5938-16.0494,32.0992
		C1145.3972,552.4519,1150.7069,541.7255,1153.2413,528.2036z"/>
	<path d="M1153.2413,524.9938c4.7679-2.7151,4.641-10.3318,6.4198-16.0428c-2.4741-7.3561-6.7542,9.964-6.4198,16.0492V524.9938z"/>
	<path d="M1217.4395,537.84c-14.6453,1.5381-31.1628,55.1703,0,60.9882v-0.0067c9.0278-7.0283,19.2927-12.8062,19.2595-28.8823
		c-7.5632-0.0737-9.4492,5.5236-19.2595,3.2031C1213.3401,567.4314,1211.2537,543.1899,1217.4395,537.84z"/>
	<path d="M1381.1462,342.0333c7.8628,20.6419,116.0352,36.7125,96.2888-19.2633c-11.0743-4.9553-28.2205-9.9975-41.7289-3.2099
		c-2.5746,11.1343,4.7882,12.3447,3.2098,22.4692C1425.5442,345.8404,1394.1248,348.4478,1381.1462,342.0333z"/>
	<polygon points="1381.1378,342.0293 1381.1462,342.0333 1381.1445,342.0293 	"/>
	<path d="M1528.8069,306.7204c-13.0403-3.0828-33.771-6.995-38.5188,6.4199h-0.0068c-5.1425,12.6323,13.8628,1.1168,12.8396,9.6298
		c5.136,51.3717-59.9449,64.6327-96.2904,44.9385c-9.8102,4.3735,10.9471,11.5023,16.0428,12.8397
		C1479.936,395.4944,1573.05,364.0706,1528.8069,306.7204z"/>
	<path d="M807.2393,815.4816h8.2423v-8.2424c-0.8263,1.925-1.3842,4.1894-1.6727,6.5696
		C811.4286,814.0975,809.1643,814.6553,807.2393,815.4816z"/>
	<path d="M773.0195,804.2621c-0.448,26.1138-21.5798-7.3159-25.6792,3.2033c1.6127,2.7615,4.1123,5.5488,7.1978,8.0161h34.4204
		C787.9958,807.3915,782.6948,803.6396,773.0195,804.2621z"/>
	<path d="M676.7224,788.2126c5.4836,18.5771,35.8373-7.6571,41.722,9.6298c0.7223,6.0654-3.6111,7.0819-3.2031,12.8395
		c7.7305-1.3174,6.9749,5.8515,16.0496,3.2033v0.0067C762.447,778.6498,697.3928,788.2126,676.7224,788.2126z"/>
	<path d="M654.2666,768.9464c-15.1536,0.1672-16.4041-13.5552-25.6792-19.2594l-0.0068,0.0002
		c2.073,24.676,12.7058,40.7255,41.7288,38.5187c11.6492-8.9879,5.6506-34.3527-12.8396-32.0991
		C656.928,760.9083,658.6199,767.9567,654.2666,768.9464z"/>
	<path d="M580.4387,743.2673c0.4547,14.5314,17.0527,12.913,32.0991,12.8395c34.3057-38.1177-38.3853-53.7659-67.4081-48.1486
		c16.2769,7.2625,44.8116,2.267,48.1486,22.4694C594.8564,740.5722,577.3491,731.6179,580.4387,743.2673z"/>
	<path d="M474.5119,592.4017h-16.0494c-13.0737,27.8527,25.7595,41.4078,41.7288,22.4694l-0.0002,0.0067
		c4.8149-47.6135-30.6278-55.0364-57.7783-70.618C450.1969,563.2184,479.2531,560.9113,474.5119,592.4017z"/>
	<path d="M468.0921,489.6849C471.7701,469.0879,458.2618,482.5963,468.0921,489.6849L468.0921,489.6849z"/>
	<path d="M362.1654,480.0551c-14.9128,19.2595-20.062,49.2855-6.4199,73.8279c24.6426,13.3478,53.7524-5.0021,41.722-35.3088
		c-10.3318-0.7089-13.5752,5.6774-25.6792,3.2098c-3.0092-2.7083-6.8544-20.4565,0-22.4693
		c5.3699,4.2598,10.7532,8.5063,22.4694,6.4199c0.6821-3.5979,3.5577-4.9954,6.4199-6.4199
		c-5.2762-31.31-20.122-28.3073,6.4199-44.9386c-23.4457-2.0463-26.1942,16.6112-44.9387,19.2592
		c0.7022-4.0323,5.0021-6.5602-3.2098-6.4197c-19.6139-4.9888-26.6691-22.5496-41.7288-32.0991
		C319.5406,461.7119,345.5875,477.9955,362.1654,480.0551z"/>
	<path d="M297.9739,325.9798c4.3124-3.7808,10.8689-7.49,18.1017-9.9041l-5.8776-5.8776
		C304.2523,314.875,299.8335,320.2819,297.9739,325.9798z"/>
	<path d="M365.3751,403.0243c-11.6894-6.2728-11.5355-14.6385-25.6792-12.8397c-44.6109,5.6439,2.7418,93.6957,41.7288,54.5616
		c-17.5877-0.6687-26.2144-10.1647-28.8892-25.6793C353.1106,410.019,367.7892,415.0681,365.3751,403.0243z"/>
	<polygon points="317.2267,393.3878 317.2266,393.3892 317.2334,393.3878 	"/>
	<path d="M179.2076,245.7322c-26.6756,65.9099,40.7256,88.5131,102.717,86.6674c-35.3558,19.6942-29.986,91.9974,9.623,89.8773
		c13.3676-0.7155,24.7891-9.6627,25.6791-28.8877c-39.6503,9.1539-53.5569-43.4035-25.6725-67.4094
		c-61.0952,14.1906-99.6608-47.2725-60.9882-83.4575C214.1353,234.1832,193.4382,236.1761,179.2076,245.7322z"/>
	<path d="M301.1772,313.1201c0.8521-3.1285,2.3433-5.6185,4.0153-7.9277c2.3093-1.6719,4.7993-3.1632,7.9277-4.0153
		c30.9744-57.8994-58.5825-97.9383-66.9007-54.9578l8.9224,8.9225l-8.9225-8.9224
		C203.2389,254.5377,243.2778,344.0945,301.1772,313.1201z M272.9866,272.9867l0.0002,0.0002c0-0.0001,0-0.0001,0-0.0001
		c0.0001,0,0.0001,0,0.0001,0l-0.0002-0.0002c-0.9659-6.5058-0.1863-10.6111,8.0344-13.5381
		c20.0219,2.053,33.7775,21.5598,25.6792,41.7287c-3.5436-5.1927-7.2488-10.2242-15.8662-10.3431l-0.0001-0.0001v0.0001h-0.0001
		l0.0001,0.0001c0.119,8.6174,5.1505,12.3226,10.3431,15.8662c-20.1689,8.0983-39.6757-5.6573-41.7287-25.6792
		C262.3756,272.8004,266.4808,272.0208,272.9866,272.9867z"/>
	<path d="M121.4226,191.1439c-44.1495,4.3735-12.3447,84.5943,19.2595,44.9385c-3.7382-5.8981-17.0393-2.2269-12.8397-16.0496
		c3.6111-24.208,34.8675-20.7708,51.3585-32.0989c-43.8018-4.6812-109.0698,2.3739-115.5565-48.1487
		c2.7217-4.7679,10.3385-4.641,16.0495-6.4197C60.6283,97.749,14.8136,122.0239,15.489,149.4151
		C16.5323,191.9464,81.0982,189.5456,121.4226,191.1439z"/>
	<path d="M163.1513,171.8778h0.0001c-15.4478-1.7053-27.2174-7.0352-28.8892-22.4694c-0.9348-5.9835,4.7733-5.324,8.9805-6.1656
		l0.0001,0.0001v-0.0001c0.0001,0,0.0001,0,0.0001,0l-0.0001-0.0001c0.8417-4.2071,0.1822-9.9152,6.1656-8.9804
		c15.4343,1.6718,20.7641,13.4415,22.4694,28.8892v-0.0001c17.3536-14.7723-0.9764-65.1478-22.4694-70.6179
		c-9.496-2.4141-13.9966,2.0864-22.4693,3.2032c-5.2172,6.9733-7.8246,15.3443-7.8179,23.3846
		c-8.0403-0.0068-16.4113,2.6006-23.3845,7.8179c-1.1169,8.4726-5.6173,12.9733-3.2032,22.4693
		C98.0035,170.9014,148.379,189.2313,163.1513,171.8778z"/>
	<path d="M802.6569,802.6567c-2.3706-9.3021-6.4321-19.1803-4.8412-29.6371c-3.7583,0.5216-2.7084,5.8514-3.2098,9.6298
		c-17.0593-39.241-29.6383-78.9369-51.3584-115.5565c-53.1193-89.5435-144.8534-173.4666-275.1366-198.9821l-0.0002-0.0002
		c0,0.0001,0.0001,0.0001,0.0001,0.0002c-0.0001,0-0.0001-0.0001-0.0002-0.0001l0.0002,0.0002
		c25.5156,130.2832,109.4386,222.0174,198.982,275.1366c36.6196,21.7201,76.3156,34.2991,115.5566,51.3584
		c-3.7783,0.5015-9.1082-0.5484-9.6299,3.2098c10.4569-1.5909,20.3351,2.4706,29.6372,4.8412l0.0002,0.0002
		c0-0.0001-0.0001-0.0001-0.0001-0.0001c0.0001,0,0.0001,0,0.0001,0L802.6569,802.6567z M516.2339,582.7454
		c-18.3797-33.1116-31.1758-68.6897-38.8251-105.3365c36.6468,7.6493,72.2249,20.4454,105.3365,38.8251
		c92.6403,51.4227,174.2524,145.1928,201.3438,267.8552C661.4268,756.9979,567.6567,675.3856,516.2339,582.7454z M796.8772,796.8773
		c-1.6348-0.6575-3.1753-1.4092-4.5981-2.2783c0.9243,0.1554,1.8452,0.2982,2.7681,0.4482l-3.6526-3.6527l3.6527,3.6526
		c-0.15-0.9229-0.2928-1.8438-0.4481-2.7681c0.8689,1.4229,1.6207,2.9633,2.2782,4.5982l2.3119,2.3119L796.8772,796.8773z"/>
	<path d="M182.4503,182.4504l-7.5972-7.5974L182.4503,182.4504c-1.8903-4.8615-4.6608-8.8417-7.3759-12.8791
		c-1.3539,0.7325-2.6926,1.2028-4.02,1.4831l0.0001,0.0001c-0.2804,1.3274-0.7505,2.666-1.4832,4.02
		C173.6087,177.7895,177.5889,180.5601,182.4503,182.4504z"/>
	<path d="M503.3944,614.8712c-22.6365,42.17,17.7414,114.5267,57.7849,73.8277v-19.2393
		c52.9619,53.9619,124.337,106.7172,205.4204,121.9629c-86.6674-25.686-152.9586-71.7347-208.6437-128.3962
		c0.5752-7.2957-10.84-18.7109-12.8396-12.8395c4.0391,1.3107,6.5603,4.1327,6.4199,9.623
		c-6.1122-1.3776-8.0649-6.9147-16.0429-6.4199c-0.0601,9.5697,0.2943,19.5605-9.6296,19.2595
		C502.1639,669.6001,510.1151,634.9063,503.3944,614.8712z"/>
	<path d="M541.9188,640.5549c-1.8054-3.744-3.8779-6.552-6.4187-9.6276C516.754,608.063,540.9366,646.8079,541.9188,640.5549z"/>
	<polygon points="541.9199,640.5504 541.9188,640.5549 541.9199,640.5571 	"/>
	<path d="M500.1913,576.3521c0.468-4.2797-5.0824-17.7213-6.4199-9.6296C495.3228,570.5142,497.1953,573.9982,500.1913,576.3521z"/>
	<path d="M493.7713,560.3028L493.7713,560.3028c-3.5443-12.5054-8.894-23.2719-16.0494-32.0992
		C480.2563,541.7255,485.5659,552.4519,493.7713,560.3028z"/>
	<path d="M471.302,508.9511c1.7789,5.7109,1.6519,13.3277,6.4199,16.0428v0.0065
		C478.0561,518.915,473.7763,501.595,471.302,508.9511z"/>
	<path d="M413.5238,537.84c6.1858,5.3499,4.0994,29.5914,0,35.3023c-9.8104,2.3205-11.6962-3.2768-19.2595-3.2031
		c-0.0333,16.0762,10.2316,21.854,19.2595,28.8823v0.0067C444.6866,593.0104,428.169,539.3781,413.5238,537.84z"/>
	<path d="M249.8169,342.0333c-12.9784,6.4145-44.3979,3.8071-57.7698-0.004c-1.5782-10.1246,5.7845-11.335,3.2099-22.4692
		c-13.5084-6.7876-30.6545-1.7454-41.7288,3.2099C133.7819,378.7458,241.9541,362.6752,249.8169,342.0333z"/>
	<polygon points="249.8187,342.0293 249.8169,342.0333 249.8254,342.0293 	"/>
	<path d="M140.6819,313.1402h-0.0067c-4.7479-13.4149-25.4786-9.5027-38.5188-6.4199
		c-44.2432,57.3503,48.8707,88.774,105.9335,73.8279c5.0958-1.3375,25.853-8.4662,16.0428-12.8397
		c-36.3455,19.6942-101.4263,6.4332-96.2905-44.9385C126.8191,314.257,145.8244,325.7725,140.6819,313.1402z"/>
	<path d="M519.037,519.037c41.494,106.6739,131.7789,192.1794,226.8375,226.8376l-20.7881-20.7883
		c-69.2073-31.5197-127.0697-81.7543-163.9138-139.131c-9.9102-15.4304-18.6227-32.7017-26.0903-50.873
		c18.1713,7.4676,35.4426,16.1801,50.873,26.0902c57.3767,36.8442,107.6113,94.7066,139.1311,163.9138l20.7882,20.7882
		C711.2166,650.816,625.7109,560.531,519.037,519.037z"/>
	<path d="M807.4655,747.3404c-10.5192,4.0992,22.9105,25.2311-3.2032,25.6792c-0.6226,9.6752,3.1293,14.9763,11.2194,15.939V754.538
		C813.0142,751.4526,810.2271,748.953,807.4655,747.3404z"/>
	<path d="M813.8918,731.2909h-0.0067c2.6482-9.0747-4.5206-8.3191-3.2032-16.0496c-5.7576-0.408-6.7742,3.9254-12.8396,3.2031
		c-17.2869-5.8848,8.9475-36.2384-9.6296-41.722C788.2126,697.3929,778.6499,762.447,813.8918,731.2909z"/>
	<path d="M749.687,628.5873c5.7041,9.2752,19.4266,10.5257,19.2594,25.6792c-0.9896,4.3534-8.0381,2.6615-12.8395,3.2031
		c-2.2537,18.4904,23.1111,24.4889,32.099,12.8396c2.2068-29.0229-13.8428-39.6557-38.5187-41.7288L749.687,628.5873z"/>
	<path d="M756.1069,612.5378c0.0735-15.0464,1.6919-31.6443-12.8396-32.0991c-11.6494-3.0895-2.6951,14.4178-12.8396,12.8396
		c-20.2024-3.3369-15.207-31.8716-22.4695-48.1485C702.3411,574.1526,717.9893,646.8436,756.1069,612.5378z"/>
	<path d="M592.4017,474.5119c-31.4904,4.7413-29.1833-24.3151-48.1418-32.0991c15.5814,27.1505,23.0044,62.5931,70.6179,57.7783
		l-0.0067,0.0002c18.9385-15.9693,5.3833-54.8025-22.4694-41.7288V474.5119z"/>
	<path d="M489.6849,468.0921C482.5963,458.2618,469.0879,471.7701,489.6849,468.0921L489.6849,468.0921z"/>
	<path d="M442.6367,442.6367c-36.509,10.4559-45.4581,88.632-6.6437,91.9933c21.5399,1.8658,38.6258-22.3154,19.2594-44.9385
		c-14.0767-3.377-10.5458,10.8536-22.4692,9.6231c-17.835-20.5132,3.7679-38.1181,13.4341-53.0973
		c14.9792-9.6663,32.5841-31.2691,53.0973-13.4341c1.2305,11.9234-13.0001,8.3926-9.6231,22.4692
		c22.6231,19.3664,46.8044,2.2805,44.9385-19.2594C531.2687,397.1787,453.0927,406.1277,442.6367,442.6367z"/>
	<path d="M380.052,380.052c-6.8863,5.954-11.5407,14.2396-11.4669,22.9656c0.2385,29.0327,43.3936,48.9645,71.6235,37.191
		c11.7735-28.2299-8.1584-71.385-37.191-71.6235C394.2916,368.5113,386.006,373.1657,380.052,380.052z"/>
	<path d="M326.7508,326.7508c-32.0005-0.674-42.1968,47.3634-9.5242,57.014c17.7894,5.2465,34.8136-4.8237,53.1808-13.3573
		l-6.1481-6.1482l6.1481,6.1481c8.5336-18.3672,18.6038-35.3914,13.3573-53.1808
		C374.1142,284.554,326.0768,294.7502,326.7508,326.7508z M355.0371,355.0371c-5.2368,1.1863-10.1384,0.2924-15.3412-6.5881
		c0.5314-2.3862,2.0394-3.7957,3.5209-5.2321l0.0001-0.0001l0.0001-0.0001c1.4364-1.4814,2.8459-2.9894,5.2321-3.5209
		C355.3296,344.8988,356.2234,349.8003,355.0371,355.0371z"/>
	<path d="M467.2156,358.9489c-0.1405,8.212,2.3874,3.912,6.4197,3.2098c-2.648,18.7444-21.3055,21.493-19.2592,44.9387
		c16.6312-26.5419,13.6285-11.696,44.9385-6.4199c1.4244-2.8621,2.822-5.7377,6.4199-6.4199
		c2.0865-11.7162-2.16-17.0995-6.4199-22.4694c2.0129-6.8544,19.761-3.0092,22.4693,0c2.4677,12.104-3.9186,15.3474-3.2098,25.6792
		c30.3068,12.0304,48.6566-17.0793,35.3088-41.722c-24.5424-13.6421-54.5683-8.4929-73.8279,6.4199
		c-2.0596-16.5779-18.3432-42.6248-44.9386-44.9453C444.666,332.2798,462.2268,339.335,467.2156,358.9489z"/>
	<path d="M310.1981,310.1981l5.8776,5.8775c2.4141-7.2328,6.1232-13.7893,9.9041-18.1017
		C320.2819,299.8335,314.875,304.2523,310.1981,310.1981z"/>
	<path d="M390.1847,339.6959c-1.7988,14.1437,6.5668,13.9898,12.8397,25.6792c12.0438,2.4141,6.9947-12.2645,16.0427-12.8396
		c15.5146,2.6749,25.0106,11.3015,25.6794,28.8892C483.8803,342.4377,395.8286,295.085,390.1847,339.6959z"/>
	<path d="M194.3842,194.3842c-36.9045,3.3077-64.5212,32.035-34.4362,54.5378c19.7275,0.4748,19.6071-18.9049,35.309-22.4693
		c11.9766-1.7306,22.0831-1.592,30.9656-0.2299l0.0002,0.0002c0-0.0001,0-0.0001,0-0.0001c0.0001,0,0.0001,0,0.0001,0
		l-0.0002-0.0002c-1.3621-8.8826-1.5007-18.9891,0.23-30.9656c3.5643-15.7018,22.944-15.5814,22.4692-35.309
		C226.4192,129.863,197.692,157.4797,194.3842,194.3842z"/>
	<polygon points="393.3878,317.2333 393.3892,317.2266 393.3878,317.2267 	"/>
	<path d="M242.5223,230.5659c36.1849-38.6726,97.648-0.1071,83.4575,60.9882c24.0059-27.8844,76.5634-13.9778,67.4094,25.6725
		c19.225-0.89,28.1722-12.3115,28.8877-25.6791c2.1201-39.609-70.1832-44.9788-89.8773-9.623
		c1.8458-61.9914-20.7574-129.3926-86.6674-102.717C236.1761,193.4382,234.1832,214.1353,242.5223,230.5659z"/>
	<path d="M133.3657,79.6938c1.7787-5.711,1.6517-13.3278,6.4197-16.0495c50.5226,6.4867,43.4675,71.7547,48.1487,115.5565
		c11.3281-16.491,7.8909-47.7474,32.0989-51.3585c13.8227-4.1996,10.1514,9.1014,16.0496,12.8396
		c39.6557-31.6041-40.5651-63.4089-44.9386-19.2594c-1.5983-40.3244,0.8025-104.8903-41.7288-105.9335
		C122.024,14.8136,97.7491,60.6283,133.3657,79.6938z"/>
	<path d="M672.6494,525.8637c0.301,9.924-9.6898,9.5695-19.2595,9.6296c-0.4949,7.978,5.0422,9.9307,6.4199,16.0429
		c-5.4904,0.1404-8.3123-2.3807-9.623-6.4199c-5.8713,1.9996,5.5438,13.4147,12.8396,12.8396
		c56.6614,55.6852,102.7102,121.9764,128.3961,208.6437c-15.2457-81.0834-68.0011-152.4585-121.9629-205.4204h19.2393
		c40.699-40.0436-31.6576-80.4214-73.8278-57.7849C634.9063,510.1151,669.6001,502.1639,672.6494,525.8637z"/>
	<path d="M498.586,498.586c21.0434,72.0112,61.3023,128.8434,104.3153,170.8332c39.5422,38.6079,101.1399,76.5648,161.8456,95.3277
		l0.0001,0.0001v-0.0001c-18.7631-60.7057-56.72-122.3034-95.3279-161.8456C627.4294,559.8883,570.5972,519.6295,498.586,498.586z
		 M761.356,761.3559l-6.7822-6.782c-115.4553-38.3973-210.9965-132.4658-248.5443-248.5445
		c116.0786,37.5479,210.1471,133.089,248.5445,248.5444L761.356,761.3559z"/>
	<path d="M630.9275,535.5001c3.0754,2.5407,5.8835,4.6133,9.6274,6.4187C646.8079,540.9366,608.063,516.754,630.9275,535.5001z"/>
	<polygon points="640.5571,541.9199 640.5549,541.9188 640.5503,541.9199 	"/>
	<path d="M576.3521,500.1913c-2.3538-2.996-5.8379-4.8684-9.6295-6.4199C558.6309,495.1089,572.0724,500.6593,576.3521,500.1913z"/>
	<path d="M560.3027,493.7713c-7.8508-8.2054-18.5773-13.515-32.0991-16.0495C537.0309,484.8773,547.7974,490.2271,560.3027,493.7713
		L560.3027,493.7713z"/>
	<path d="M508.9511,471.302c-7.3561,2.4742,9.964,6.7541,16.0492,6.4198h-0.0065
		C522.2787,472.9538,514.662,473.0809,508.9511,471.302z"/>
	<path d="M573.1423,413.5238c-5.7109,4.0994-29.9525,6.1858-35.3023,0c1.5381,14.6452,55.1703,31.1628,60.9881,0h-0.0066
		c-7.0283-9.0279-12.8062-19.2928-28.8823-19.2595C569.8655,401.8275,575.4629,403.7133,573.1423,413.5238z"/>
	<path d="M322.77,153.5282c-4.9553,11.0743-9.9975,28.2204-3.2099,41.7288c11.1343,2.5745,12.3447-4.7881,22.4692-3.2099
		c3.811,13.3718,6.4185,44.7914,0.004,57.7698C362.6752,241.9541,378.7458,133.7819,322.77,153.5282z"/>
	<polygon points="342.0293,249.8254 342.0333,249.8169 342.0293,249.8187 	"/>
	<path d="M313.1402,140.6752v0.0067c12.6323,5.1425,1.1168-13.8628,9.6298-12.8396c51.3717-5.1359,64.6327,59.945,44.9386,96.2904
		c4.3735,9.8102,11.5022-10.947,12.8397-16.0428c14.9461-57.0628-16.4775-150.1768-73.8279-105.9335
		C303.6375,115.1966,299.7254,135.9273,313.1402,140.6752z"/>
</g>
</svg>
